# xmcd
# 
# Track frame offsets:
#     150
#     27095
#     43983
#     68417
#     85266
#     112486
#     140386
#     160223
#     181666
#     210946
# 
# Disc length: 3096
# 
# Revision: 1
# Processed by: cddbd v1.5.2PL0 Copyright (c) Steve Scherf et al.
# Submitted via: fre:ac v1.0.31
# 
DISCID=810c160a
DTITLE=Tom Waits - A Small Affair In Ohio
DYEAR=1977
DGENRE=Rock/Pop
TTITLE0=Standing On The Corner
TTITLE1=I Never Talk To Strangers
TTITLE2=The One That Got Away
TTITLE3=Depot Depot
TTITLE4=Jitterbug Boy
TTITLE5=Step Right Up
TTITLE6=Invitation To The Blues
TTITLE7=Eggs and Sausage
TTITLE8=Small Change
TTITLE9=I Can't Wait To Get Off Work
EXTD=YEAR: 1977
EXTT0=
EXTT1=
EXTT2=
EXTT3=
EXTT4=
EXTT5=
EXTT6=
EXTT7=
EXTT8=
EXTT9=
PLAYORDER=
